<svg width="99" height="29" viewBox="0 0 99 29" fill="none" xmlns="http://www.w3.org/2000/svg">
<g opacity="0.2">
<path fill-rule="evenodd" clip-rule="evenodd" d="M78.6288 16.8513C79.1684 16.2671 79.6369 15.6244 80.2901 15.157C80.8296 14.7773 81.3834 14.4559 82.0649 14.4559C83.0162 14.4559 83.57 14.8357 83.9391 15.7413C84.1521 16.2525 84.1947 16.7929 84.2941 17.3772C84.5497 17.0266 84.7769 16.6907 85.0041 16.3839C85.3874 15.8581 85.8276 15.3907 86.3671 15.0256C88.213 13.7256 90.4422 14.6896 90.854 16.9536C91.1095 18.3558 90.6978 19.6557 90.286 20.9557C90.1724 21.3062 90.002 21.6566 89.9452 22.0365C89.9168 22.2848 89.8458 22.533 90.0588 22.7084C90.2576 22.8837 90.499 22.723 90.6836 22.6354C91.8905 22.0804 92.927 21.277 93.7221 20.196C93.9351 19.9039 94.1481 19.6118 94.3469 19.3052C94.4462 19.1591 94.5456 19.0275 94.7444 19.1006C94.929 19.1591 95 19.3196 95 19.4951C95 19.6557 94.9858 19.8309 94.9432 19.9917C94.0061 22.8107 92.3022 24.8994 89.4767 25.7903C87.5598 26.4036 85.8844 24.7239 86.211 22.6938C86.3671 21.7297 86.7505 20.8827 87.1907 20.0355C87.5882 19.276 88.0426 18.5457 88.2414 17.6985C88.3408 17.2748 88.284 16.8952 87.9716 16.6176C87.645 16.3255 87.2901 16.4862 86.9777 16.6615C86.0832 17.1727 85.4442 17.9906 84.8337 18.8084C83.5274 20.5905 83.0162 22.6646 82.7748 24.8409C82.7607 25.0161 82.7181 25.2061 82.7039 25.3812C82.6897 25.7611 82.4625 25.8634 82.1359 25.8634H81.0284C79.9493 25.8634 79.4381 25.4106 79.2252 24.3005C79.0832 23.5264 79.2819 22.8251 79.5375 22.1388C79.9777 20.9411 80.6166 19.8602 81.213 18.7501C81.4544 18.312 81.6247 17.8446 81.7525 17.3626C81.8235 17.0997 81.9229 16.7783 81.6673 16.5592C81.3976 16.3401 81.0852 16.3109 80.7444 16.4424C80.4179 16.5738 80.1481 16.7637 79.8925 16.9974C78.0609 18.6479 76.8256 20.6342 76.4564 23.1612C76.357 23.8915 76.3144 24.6364 76.215 25.3812C76.1724 25.7464 75.9878 25.878 75.6613 25.878C75.0791 25.878 74.5112 25.8488 73.929 25.8924C73.4462 25.9218 73.1197 25.7027 72.9351 25.2937C72.7789 24.943 72.6511 25.0161 72.4097 25.1915C71.8134 25.6297 71.1886 25.9802 70.4219 25.9802C69.0588 25.9802 68.0649 25.1621 67.7667 23.7893C67.6815 23.3803 67.6815 22.9712 67.6815 22.4747C67.3834 22.8691 67.1278 23.1903 66.858 23.5264C66.2759 24.2567 65.6085 24.8994 64.7992 25.3812C63.2231 26.3162 61.8174 26.024 60.7099 24.5342C60.284 24.8994 59.858 25.2645 59.3611 25.542C57.5436 26.5937 55.6694 25.7757 55.1724 23.687C54.8742 22.46 55.1014 21.277 55.5558 20.1377C55.9391 19.1591 56.5213 18.312 57.2596 17.4939C56.9473 17.4648 56.7485 17.6109 56.5497 17.713C55.8398 18.0198 55.1298 18.4872 54.3631 18.5018C53.6531 18.5163 53.5538 18.9108 53.355 19.4366C52.858 20.795 52.3043 22.1388 51.3387 23.2342C50.3164 24.3735 49.1805 25.3668 47.6613 25.7173C45.3043 26.2723 44.211 24.5196 44.3813 22.6791C44.4807 21.613 44.9777 20.6636 45.432 19.7142C45.7728 19.0275 46.213 18.3996 46.4118 17.6399C46.5112 17.2603 46.4686 16.9096 46.1704 16.6469C45.8722 16.3839 45.5314 16.4862 45.2191 16.6615C44.2819 17.2017 43.6146 18.0344 42.9615 18.8815C41.8682 20.313 41.3712 21.9927 41.144 23.7745C41.073 24.3005 41.0304 24.8263 40.9736 25.3521C40.9452 25.6733 40.7606 25.8049 40.4767 25.8049H38.4746C38.0629 25.8049 37.8215 25.5128 37.6795 25.1769C37.5375 24.8555 37.4239 24.943 37.211 25.0891C36.572 25.5566 35.8905 25.9218 35.0527 25.9072C33.789 25.8634 32.8093 25.0308 32.5396 23.7163C32.4544 23.3073 32.4544 22.8982 32.4544 22.3725C32.2556 22.6354 32.1136 22.8251 31.9716 23.0152C31.2617 23.9646 30.4665 24.8117 29.43 25.3812C27.3002 26.5645 25.0142 25.1477 25 22.65C25 21.0871 25.7099 19.8164 26.6187 18.6624C28.2657 16.5738 30.3387 15.1278 32.9087 14.5436C34.641 14.1492 36.3164 14.3245 37.7221 15.5952C37.8499 15.7121 37.9635 15.8143 38.0629 15.9458C38.7728 16.8513 38.6876 17.2165 38.0345 17.903C37.6369 18.3266 37.2252 18.7501 36.7282 19.0569C36.3448 19.2906 36.288 19.2614 36.2738 18.8084C36.2596 18.3266 36.3022 17.8446 36.1886 17.3626C35.8763 15.9604 35.1379 15.4784 33.8032 15.9019C32.568 16.2963 31.6592 17.1581 30.8783 18.1659C30.1684 19.0861 29.5862 20.0793 29.3022 21.2332C29.2028 21.613 29.1744 22.0073 29.5152 22.2702C29.8418 22.533 30.211 22.46 30.5517 22.2702C31.3895 21.8027 31.9574 21.0287 32.568 20.313C33.1217 19.6557 33.4057 18.867 33.8316 18.1367C34.3002 17.3187 34.783 17.1727 35.6349 17.5524C35.8621 17.6547 35.9189 17.7423 35.8195 17.9906C35.4787 18.867 35.3225 19.7872 35.3651 20.7512C35.4077 21.6276 35.8195 22.2264 36.501 22.3725C37.1116 22.5185 37.6795 22.2118 37.9209 21.6276C39.4828 17.8446 41.1298 14.1054 43.0183 10.4831C43.8844 8.80334 45.3469 8.07303 47.1501 8H47.3205C47.7039 8.07303 48.1156 8.13146 48.2718 8.55503C48.428 8.97861 48.1724 9.29995 47.9026 9.60668C46.071 11.6662 44.5375 13.9301 43.3874 16.4716C43.3448 16.5592 43.3306 16.6469 43.288 16.7199C43.2596 16.7929 43.1318 16.8513 43.2028 16.9096C43.3022 16.9974 43.3306 16.8513 43.3732 16.7929C43.856 16.1356 44.3529 15.5076 44.9777 14.9818C46.6672 13.5503 48.7546 14.3537 49.1805 16.6615C49.4503 18.1511 49.01 19.4951 48.499 20.8533C48.3428 21.2624 48.1298 21.6422 48.1014 22.0948C48.073 22.65 48.215 22.8107 48.6978 22.5916C50.6288 21.686 52.1481 20.3568 52.8722 18.2242C52.9432 18.0051 52.8438 17.903 52.7586 17.7423C51.8499 16.2525 51.9777 14.5436 53.2556 13.5503C53.7951 13.1268 54.4057 12.9369 55.073 13.2144C55.4564 13.3751 55.6126 13.6526 55.499 14.0908C55.3712 14.602 55.0588 15.011 54.789 15.4345C54.4483 15.9896 54.0223 16.5008 53.8803 17.2017C54.1785 17.2311 54.4057 17.085 54.6329 16.9536C55.4706 16.4716 56.2941 15.975 57.1318 15.5076C57.785 15.1424 58.4665 14.7773 59.2333 14.7627C60.2982 14.7334 60.9371 15.5806 60.6815 16.6469C60.4686 17.4939 60.0284 18.2242 59.5456 18.94C59.1339 19.5387 58.7079 20.1085 58.3529 20.7512C58.1258 21.1748 57.9554 21.613 58.2961 22.0511C58.6511 22.5185 59.1623 22.5478 59.6592 22.4747C59.8722 22.4455 60.1562 22.46 60.2272 22.0948C60.5396 20.3714 61.4767 18.9985 62.641 17.8007C64.1744 16.2233 65.9777 15.0986 68.1075 14.6458C69.8256 14.2807 71.4868 14.4267 72.8925 15.6829C73.0203 15.7997 73.1623 15.9312 73.2759 16.0626C73.9148 16.8221 73.9148 17.2457 73.2475 17.9906C72.8641 18.4142 72.4523 18.8084 71.9838 19.1299C71.856 19.2175 71.714 19.3782 71.5578 19.276C71.4016 19.1883 71.4868 18.9985 71.4726 18.8524C71.4442 18.385 71.4868 17.9176 71.3874 17.4502C71.0892 16.0626 70.3225 15.5806 68.9878 16.0188C67.7383 16.4278 66.8296 17.3041 66.0487 18.3266C65.3671 19.2175 64.7992 20.196 64.5152 21.3062C64.4158 21.7152 64.3732 22.1242 64.7282 22.3869C65.069 22.65 65.4665 22.5478 65.8073 22.3433C66.7586 21.759 67.3976 20.868 68.0791 20.0063C68.4909 19.4805 68.6755 18.8378 69.0162 18.2681C69.499 17.4502 69.9532 17.2895 70.8195 17.6547C71.0609 17.7569 71.1176 17.859 71.0183 18.1221C70.6775 18.9985 70.5213 19.9186 70.5781 20.8827C70.6207 21.7736 71.0609 22.3725 71.785 22.5039C72.3387 22.6208 72.9067 22.2995 73.1197 21.759C74.0568 19.4657 75.3631 17.3918 76.9817 15.5368C77.1521 15.3323 77.3509 15.1424 77.5497 14.9671C78.0041 14.5728 78.7282 14.5144 79.2393 14.8065C79.4523 14.9233 79.3813 15.0402 79.2819 15.2008C78.9696 15.7121 78.7282 16.2671 78.501 16.8221C78.501 16.866 78.4868 16.9096 78.501 16.9244C78.5862 16.9244 78.6146 16.8952 78.6288 16.8513Z" fill="#020202"/>
<path fill-rule="evenodd" clip-rule="evenodd" d="M17.1758 14.9936C17.5208 14.8532 17.8226 14.7268 18.1244 14.6144C17.7507 14.5723 17.2765 14.3054 17.1758 14.9936ZM13.6404 14.6285C13.0368 14.7408 12.462 14.8672 11.9733 15.2184C11.7578 15.3729 11.6572 15.5695 11.9733 15.724C12.3901 15.9347 12.8644 15.9206 13.2812 15.8364C13.5973 15.7802 13.4249 15.3588 13.5398 15.1201C13.6117 14.9796 13.5973 14.8111 13.6404 14.6285ZM17.8513 13.3504C18.3112 13.4627 18.7567 13.5189 19.1448 13.7015C19.5903 13.8981 19.9208 13.7998 20.3089 13.6032C22.249 12.5779 24.0886 11.4121 25.5688 9.79694C26.3449 8.95423 26.9916 8.04129 27.1497 6.8615C27.3078 5.55529 26.8479 4.54404 25.6982 3.85583C24.764 3.29402 23.7005 3.0693 22.637 2.99907C20.1939 2.83053 17.7938 2.97098 15.48 3.91201C12.5051 5.11989 10.105 7.07217 8.07865 9.48794C6.25346 11.6369 4.84505 14.0386 3.69532 16.5948C3.56598 16.8617 3.47975 16.974 3.1492 16.8757C1.65456 16.3841 0.691666 15.3729 0.289263 13.9262C-0.386201 11.4543 0.159918 9.13681 1.52522 7.00195C3.17795 4.43168 5.60674 2.80244 8.39482 1.6086C11.6859 0.190041 15.1207 -0.203224 18.6705 0.0917247C20.8981 0.274312 23.0682 0.653531 25.1233 1.51029C26.2587 1.98782 27.2791 2.61986 28.1557 3.49066C29.5929 4.92326 30.0528 6.69295 29.9953 8.61714C29.9091 11.2576 28.4719 13.1537 26.3593 14.6285C25.4539 15.2605 24.491 15.7661 23.4562 16.1594C23.1113 16.2998 23.1257 16.3841 23.3269 16.651C25.0802 19.0667 25.0658 22.9573 23.1113 25.2045C21.4155 27.1427 19.3316 28.6175 16.6297 28.9405C14.6896 29.1793 12.8931 28.7017 11.3554 27.4658C10.3494 26.6652 10.0619 25.5697 10.1482 24.3618C10.1625 24.0949 10.2631 23.7438 10.6655 23.8702C11.8584 24.2494 13.0081 23.9826 14.1003 23.5472C16.6585 22.5499 18.8286 21.019 20.4382 18.7858C20.8262 18.2521 21.128 17.6763 21.1137 16.96C19.504 17.4094 17.8801 17.6201 16.2417 17.7325C16.0549 17.7465 15.983 17.8167 15.9399 17.9712C15.6381 18.7858 15.2932 19.6005 15.0345 20.4291C14.9339 20.7381 14.7902 20.7241 14.589 20.6258C13.9135 20.2746 13.3818 19.769 13.0512 19.0948C12.8644 18.7297 13.0081 18.3083 13.0656 17.9291C13.1087 17.6482 13.0225 17.6061 12.7925 17.578C12.1889 17.5077 11.5997 17.3111 11.0536 17.0442C10.7661 16.9038 10.5074 16.7353 10.3062 16.4965C9.61641 15.6819 9.41521 14.6144 10.6655 13.87C11.4847 13.3785 12.3901 13.1678 13.3386 13.0976C14.086 13.0414 14.086 13.0554 14.2728 12.3672C14.8045 10.4571 15.5519 8.63119 16.2848 6.79127C16.4285 6.44014 16.7016 6.34183 17.0034 6.2716C18.2537 6.00474 19.5184 5.92047 20.7975 6.03283C21.1424 6.06092 21.4873 6.06092 21.8179 6.18733C22.0047 6.25755 22.1915 6.34182 21.9616 6.58059C20.5532 7.99915 19.6909 9.74076 18.7855 11.4683C18.4549 12.0442 18.1819 12.6902 17.8513 13.3504Z" fill="#010101"/>
<path fill-rule="evenodd" clip-rule="evenodd" d="M95.6882 26.9858C94.6237 26.9173 93.7667 26.4789 93.1168 25.6294C92.951 25.41 92.951 25.273 93.1859 25.0813C94.444 24.0398 95.3149 22.7519 95.7987 21.1898C95.8679 20.9568 96.0061 20.9981 96.158 21.0116C97.6373 21.1351 98.8815 22.3544 98.9919 23.7796C99.1026 25.2183 98.0658 26.561 96.5867 26.9036C96.2963 26.9721 95.9923 27.027 95.6882 26.9858Z" fill="#020202"/>
<path fill-rule="evenodd" clip-rule="evenodd" d="M93 20C92.4648 20.7571 91.8732 21.4571 91 22C91.3803 20.9286 92.0563 20.3286 93 20Z" fill="#020202"/>
<path fill-rule="evenodd" clip-rule="evenodd" d="M43.0963 17.966C43.0534 18.0219 43.0248 18.162 42.9247 18.0781C42.8531 18.0219 42.9819 17.952 43.0105 17.896C43.0391 17.924 43.0677 17.952 43.0963 17.966Z" fill="#FEFEFE"/>
<path fill-rule="evenodd" clip-rule="evenodd" d="M79.0463 18.0016C79.032 18.0436 79.0034 18.0716 78.9605 18.0436C78.9462 18.0296 78.9605 17.9736 78.9605 17.9456C78.9891 17.9596 79.0177 17.9736 79.0463 18.0016Z" fill="#FEFEFE"/>
</g>
</svg>
