<svg width="99" height="30" viewBox="0 0 99 30" fill="none" xmlns="http://www.w3.org/2000/svg">
<path fill-rule="evenodd" clip-rule="evenodd" d="M78.8728 17.6045C79.4164 17.0322 79.8885 16.4027 80.5466 15.9449C81.0902 15.573 81.6482 15.2582 82.3349 15.2582C83.2934 15.2582 83.8514 15.6302 84.2233 16.5172C84.4379 17.0179 84.4809 17.5472 84.581 18.1195C84.8385 17.7762 85.0674 17.4471 85.2963 17.1467C85.6826 16.6316 86.1261 16.1738 86.6697 15.8162C88.5296 14.5429 90.7757 15.4871 91.1905 17.7046C91.4481 19.078 91.0332 20.3513 90.6183 21.6246C90.5038 21.9679 90.3322 22.3111 90.2749 22.6832C90.2463 22.9264 90.1748 23.1695 90.3894 23.3413C90.5897 23.513 90.8329 23.3556 91.0189 23.2698C92.2349 22.7262 93.2793 21.9393 94.0804 20.8805C94.295 20.5944 94.5096 20.3082 94.7099 20.0079C94.81 19.8649 94.9102 19.736 95.1105 19.8075C95.2965 19.8649 95.368 20.0221 95.368 20.1939C95.368 20.3513 95.3537 20.5228 95.3108 20.6803C94.3665 23.4415 92.6498 25.4873 89.8028 26.36C87.8715 26.9607 86.1833 25.3155 86.5124 23.327C86.6697 22.3827 87.056 21.553 87.4995 20.7233C87.9001 19.9793 88.3579 19.264 88.5582 18.4342C88.6583 18.0192 88.6011 17.6474 88.2863 17.3756C87.9573 17.0894 87.5996 17.2468 87.2849 17.4185C86.3836 17.9192 85.7398 18.7204 85.1246 19.5214C83.8085 21.2669 83.2934 23.2984 83.0502 25.4301C83.0359 25.6016 82.993 25.7877 82.9787 25.9592C82.9644 26.3314 82.7355 26.4315 82.4064 26.4315H81.2905C80.2033 26.4315 79.6882 25.988 79.4736 24.9007C79.3306 24.1425 79.5309 23.4556 79.7884 22.7834C80.2319 21.6103 80.8757 20.5516 81.4765 19.4643C81.7197 19.0351 81.8914 18.5773 82.0202 18.1052C82.0917 17.8477 82.1918 17.5329 81.9343 17.3183C81.6625 17.1038 81.3478 17.0751 81.0044 17.2039C80.6754 17.3327 80.4035 17.5186 80.146 17.7475C78.3005 19.3642 77.0559 21.3097 76.6839 23.7848C76.5837 24.5001 76.5408 25.2298 76.4407 25.9592C76.3978 26.3169 76.2118 26.4458 75.8827 26.4458C75.2962 26.4458 74.7239 26.4172 74.1374 26.46C73.6509 26.4887 73.3219 26.2741 73.1359 25.8736C72.9785 25.5301 72.8498 25.6016 72.6066 25.7734C72.0057 26.2026 71.3762 26.5459 70.6037 26.5459C69.2303 26.5459 68.2288 25.7446 67.9284 24.4C67.8426 23.9994 67.8426 23.5987 67.8426 23.1124C67.5421 23.4987 67.2846 23.8133 67.0128 24.1425C66.4262 24.8578 65.7538 25.4873 64.9384 25.9592C63.3504 26.875 61.934 26.5889 60.8181 25.1296C60.3889 25.4873 59.9598 25.8449 59.459 26.1168C57.6278 27.1468 55.7394 26.3457 55.2387 24.2999C54.9382 23.098 55.1671 21.9393 55.6249 20.8234C56.0112 19.8649 56.5978 19.0351 57.3417 18.2338C57.027 18.2053 56.8267 18.3484 56.6264 18.4484C55.9111 18.749 55.1957 19.2068 54.4232 19.2211C53.7079 19.2353 53.6077 19.6217 53.4074 20.1367C52.9067 21.4672 52.3488 22.7834 51.3759 23.8564C50.3459 24.9722 49.2014 25.9451 47.6706 26.2884C45.2957 26.8321 44.1941 25.1153 44.3658 23.3126C44.466 22.2683 44.9667 21.3384 45.4245 20.4085C45.7678 19.736 46.2113 19.1209 46.4116 18.3769C46.5118 18.0051 46.4689 17.6616 46.1684 17.4042C45.868 17.1467 45.5246 17.2468 45.2099 17.4185C44.2657 17.9477 43.5933 18.7633 42.9352 19.5929C41.8336 20.9951 41.3329 22.6403 41.104 24.3855C41.0324 24.9007 40.9895 25.4157 40.9323 25.9308C40.9037 26.2454 40.7177 26.3743 40.4316 26.3743H38.4144C37.9995 26.3743 37.7563 26.0881 37.6132 25.7591C37.4702 25.4444 37.3557 25.5301 37.1411 25.6731C36.4973 26.1311 35.8106 26.4887 34.9665 26.4744C33.6933 26.4315 32.7061 25.616 32.4343 24.3285C32.3485 23.9279 32.3485 23.5272 32.3485 23.0123C32.1482 23.2698 32.0051 23.4556 31.8621 23.6418C31.1468 24.5717 30.3456 25.4014 29.3012 25.9592C27.1553 27.1182 24.852 25.7305 24.8376 23.2841C24.8376 21.7533 25.553 20.5087 26.4686 19.3783C28.1281 17.3327 30.2168 15.9163 32.8063 15.3441C34.5517 14.9578 36.2398 15.1295 37.6561 16.3741C37.7849 16.4886 37.8994 16.5887 37.9995 16.7175C38.7148 17.6045 38.629 17.9621 37.9709 18.6345C37.5703 19.0494 37.1554 19.4643 36.6547 19.7647C36.2684 19.9936 36.2112 19.965 36.1969 19.5214C36.1826 19.0494 36.2255 18.5773 36.1111 18.1052C35.7963 16.7318 35.0524 16.2597 33.7076 16.6746C32.4629 17.0608 31.5473 17.9049 30.7605 18.892C30.0452 19.7933 29.4586 20.7662 29.1725 21.8964C29.0723 22.2683 29.0437 22.6546 29.3871 22.9121C29.7161 23.1695 30.0881 23.098 30.4314 22.9121C31.2755 22.4542 31.8478 21.6961 32.4629 20.9951C33.0209 20.3513 33.307 19.5788 33.7362 18.8634C34.2083 18.0623 34.6947 17.9192 35.5531 18.2912C35.782 18.3913 35.8392 18.4772 35.7391 18.7204C35.3957 19.5788 35.2384 20.4801 35.2813 21.4243C35.3242 22.2827 35.7391 22.8692 36.4258 23.0123C37.041 23.1553 37.6132 22.8549 37.8564 22.2827C39.4301 18.5773 41.0897 14.9149 42.9924 11.3669C43.8651 9.72167 45.3387 9.00635 47.1556 8.93482H47.3272C47.7135 9.00635 48.1284 9.06358 48.2858 9.47846C48.4431 9.89335 48.1856 10.2081 47.9138 10.5085C46.0683 12.5257 44.5232 14.7432 43.3644 17.2325C43.3215 17.3183 43.3072 17.4042 43.2642 17.4757C43.2356 17.5473 43.1069 17.6045 43.1784 17.6616C43.2785 17.7475 43.3072 17.6045 43.3501 17.5472C43.8365 16.9035 44.3372 16.2883 44.9667 15.7733C46.669 14.3712 48.7722 15.1581 49.2014 17.4185C49.4732 18.8776 49.0296 20.1939 48.5147 21.5243C48.3573 21.925 48.1427 22.297 48.1141 22.7403C48.0855 23.2841 48.2285 23.4415 48.715 23.2269C50.6606 22.3399 52.1914 21.038 52.921 18.9491C52.9926 18.7345 52.8924 18.6345 52.8066 18.4772C51.891 17.0179 52.0197 15.3441 53.3073 14.3712C53.8509 13.9564 54.4661 13.7704 55.1385 14.0422C55.5248 14.1996 55.6822 14.4714 55.5677 14.9006C55.4389 15.4013 55.1242 15.8019 54.8524 16.2168C54.509 16.7604 54.0798 17.2611 53.9368 17.9477C54.2372 17.9764 54.4661 17.8334 54.695 17.7046C55.5391 17.2325 56.3689 16.7461 57.2129 16.2883C57.871 15.9306 58.5577 15.573 59.3303 15.5587C60.4033 15.5301 61.047 16.3598 60.7895 17.4042C60.5749 18.2338 60.1314 18.9491 59.645 19.6503C59.2301 20.2367 58.8009 20.7948 58.4433 21.4243C58.2144 21.8392 58.0427 22.2683 58.3861 22.6975C58.7437 23.1553 59.2587 23.184 59.7595 23.1124C59.9741 23.0838 60.2602 23.098 60.3317 22.7403C60.6465 21.0523 61.5907 19.7075 62.7638 18.5344C64.3089 16.9893 66.1258 15.8877 68.2718 15.4442C70.0028 15.0866 71.6767 15.2296 73.093 16.46C73.2218 16.5744 73.3648 16.7032 73.4793 16.8319C74.1231 17.5759 74.1231 17.9907 73.4507 18.7204C73.0644 19.1353 72.6495 19.5214 72.1774 19.8363C72.0486 19.9221 71.9056 20.0795 71.7482 19.9793C71.5908 19.8935 71.6767 19.7075 71.6624 19.5644C71.6337 19.1066 71.6767 18.6488 71.5765 18.191C71.2761 16.8319 70.5035 16.3598 69.1587 16.789C67.8998 17.1896 66.9842 18.048 66.1973 19.0494C65.5106 19.9221 64.9384 20.8805 64.6522 21.9679C64.5521 22.3685 64.5092 22.7691 64.8668 23.0264C65.2102 23.2841 65.6108 23.184 65.9541 22.9837C66.9126 22.4114 67.5564 21.5387 68.2431 20.6946C68.658 20.1796 68.844 19.5501 69.1874 18.9922C69.6738 18.191 70.1314 18.0337 71.0043 18.3913C71.2475 18.4915 71.3047 18.5915 71.2046 18.8491C70.8612 19.7075 70.7038 20.6088 70.7611 21.553C70.804 22.4257 71.2475 23.0123 71.9771 23.141C72.535 23.2555 73.1073 22.9407 73.3219 22.4114C74.2661 20.1652 75.5823 18.1338 77.2132 16.3169C77.3849 16.1166 77.5852 15.9306 77.7855 15.759C78.2433 15.3727 78.9729 15.3155 79.4879 15.6016C79.7025 15.716 79.631 15.8305 79.5309 15.9879C79.2161 16.4886 78.9729 17.0322 78.744 17.5759C78.744 17.6188 78.7297 17.6616 78.744 17.676C78.8298 17.676 78.8585 17.6474 78.8728 17.6045Z" fill="white"/>
<path fill-rule="evenodd" clip-rule="evenodd" d="M17.0979 15.2725C17.4413 15.1294 17.7417 15.0007 18.0421 14.8862C17.6702 14.8433 17.1981 14.5715 17.0979 15.2725ZM13.5786 14.9005C12.9777 15.015 12.4054 15.1437 11.919 15.5014C11.7044 15.6588 11.6043 15.8591 11.919 16.0164C12.3339 16.231 12.806 16.2167 13.2209 16.1309C13.5356 16.0736 13.364 15.6445 13.4784 15.4012C13.5499 15.2582 13.5356 15.0865 13.5786 14.9005ZM17.7703 13.5986C18.2281 13.7131 18.6716 13.7703 19.0579 13.9563C19.5014 14.1566 19.8304 14.0565 20.2167 13.8562C22.1481 12.8118 23.9793 11.6244 25.4528 9.97914C26.2254 9.12076 26.8692 8.19084 27.0265 6.98911C27.1839 5.65862 26.7261 4.62856 25.5816 3.92755C24.6517 3.3553 23.593 3.12639 22.5343 3.05486C20.1023 2.88319 17.7131 3.02625 15.4098 3.98478C12.4484 5.21512 10.0592 7.20371 8.042 9.6644C6.22509 11.8533 4.82307 14.2997 3.67856 16.9034C3.5498 17.1752 3.46396 17.2897 3.13492 17.1895C1.64705 16.6888 0.688528 15.6588 0.28795 14.1852C-0.384449 11.6673 0.159193 9.30674 1.5183 7.13217C3.16353 4.51411 5.5813 2.85457 8.35674 1.63853C11.6329 0.19359 15.0521 -0.206988 18.5858 0.0934458C20.8033 0.279428 22.9635 0.6657 25.0093 1.53839C26.1395 2.0248 27.1553 2.66859 28.028 3.55558C29.4586 5.01483 29.9164 6.81743 29.8592 8.77741C29.7734 11.467 28.3427 13.3984 26.2397 14.9005C25.3384 15.5443 24.3799 16.0593 23.3498 16.4599C23.0064 16.603 23.0208 16.6888 23.221 16.9606C24.9664 19.4213 24.9521 23.3842 23.0064 25.6732C21.3183 27.6475 19.2439 29.1497 16.5543 29.4787C14.6229 29.7219 12.8346 29.2355 11.3038 27.9765C10.3024 27.1611 10.0163 26.0452 10.1021 24.8148C10.1164 24.543 10.2166 24.1854 10.6171 24.3141C11.8046 24.7004 12.9491 24.4286 14.0364 23.9851C16.5829 22.9693 18.7432 21.4099 20.3455 19.1352C20.7317 18.5916 21.0322 18.005 21.0179 17.2754C19.4156 17.7332 17.7989 17.9478 16.168 18.0622C15.982 18.0765 15.9105 18.1481 15.8676 18.3054C15.5671 19.1352 15.2238 19.965 14.9663 20.8091C14.8661 21.1238 14.7231 21.1095 14.5228 21.0093C13.8504 20.6517 13.321 20.1367 12.992 19.4499C12.806 19.078 12.9491 18.6488 13.0063 18.2625C13.0492 17.9764 12.9634 17.9335 12.7345 17.9049C12.1336 17.8333 11.5471 17.633 11.0034 17.3612C10.7173 17.2182 10.4598 17.0465 10.2595 16.8033C9.57278 15.9735 9.37249 14.8862 10.6171 14.128C11.4326 13.6273 12.3339 13.4127 13.2781 13.3411C14.0221 13.2839 14.0221 13.2982 14.208 12.5972C14.7374 10.6515 15.4813 8.79171 16.2109 6.91758C16.354 6.55992 16.6258 6.45978 16.9262 6.38824C18.1709 6.11642 19.4299 6.03058 20.7031 6.14504C21.0465 6.17365 21.3898 6.17365 21.7189 6.30241C21.9049 6.37394 22.0908 6.45978 21.8619 6.70298C20.4599 8.14793 19.6015 9.92191 18.7002 11.6816C18.3712 12.2682 18.0994 12.9262 17.7703 13.5986Z" fill="white"/>
<path fill-rule="evenodd" clip-rule="evenodd" d="M95.5684 27.0323C94.4668 26.9607 93.5798 26.5031 92.9072 25.6161C92.7357 25.387 92.7357 25.244 92.9788 25.0438C94.2808 23.9564 95.1821 22.6118 95.6828 20.9807C95.7544 20.7375 95.8974 20.7805 96.0546 20.7947C97.5856 20.9236 98.8731 22.1967 98.9875 23.6847C99.102 25.1869 98.0291 26.5888 96.4983 26.9464C96.1977 27.018 95.8831 27.0753 95.5684 27.0323Z" fill="white"/>
<path fill-rule="evenodd" clip-rule="evenodd" d="M93.823 20.2654C93.2794 21.0236 92.6785 21.7246 91.7915 22.2683C92.1778 21.1953 92.8645 20.5944 93.823 20.2654Z" fill="white"/>
<path fill-rule="evenodd" clip-rule="evenodd" d="M43.4074 17.5329C43.3645 17.59 43.3359 17.7331 43.2357 17.6474C43.1642 17.59 43.2929 17.5186 43.3215 17.4614C43.3502 17.49 43.3788 17.5186 43.4074 17.5329Z" fill="#FEFEFE"/>
<path fill-rule="evenodd" clip-rule="evenodd" d="M78.8728 17.6045C78.8585 17.6474 78.8298 17.676 78.7869 17.6474C78.7726 17.6331 78.7869 17.5759 78.7869 17.5472C78.8155 17.5616 78.8441 17.5759 78.8728 17.6045Z" fill="#FEFEFE"/>
</svg>
